<svg id="Color" enable-background="new 0 0 24 24" height="512" viewBox="0 0 24 24" width="512" xmlns="http://www.w3.org/2000/svg"><path d="m23.561 6.965c-.282-.128-.612-.07-.834.145-.812.79-2.692 1-3.945 1.025.673-1.929 3.286-5.064 5.003-6.81.212-.215.274-.537.157-.816-.117-.278-.39-.46-.692-.46-7.36 0-10.8 2.067-12.354 3.648.135-.861.615-1.348.642-1.375.224-.212.295-.539.18-.825s-.407-.501-.702-.47c-.17.001-4.203.064-6.881 2.723-2.808 2.787-1.709 6.861-1.661 7.034l.03.086c2.24 5.386 7.421 7.524 11.859 7.524 1.573 0 3.053-.269 4.274-.757 4.862-1.942 5.343-9.622 5.362-9.948.017-.308-.157-.596-.438-.724z" fill="#ef5350"/><path d="m23.25.05c-7.36 0-10.8 2.067-12.354 3.648.135-.861.615-1.348.642-1.375.224-.212.295-.539.18-.825-.108-.268-.37-.473-.644-.473-.019 0-.038.001-.057.003-.17.001-4.203.064-6.881 2.723-2.808 2.787-1.709 6.861-1.661 7.034l.03.086c1.04 2.501 2.714 4.301 4.653 5.513l16.302-16.304c-.067-.02-.138-.03-.21-.03z" fill="#d04846"/><path d="m14.204 24.009c-.125 0-.25-.031-.363-.094l-4.776-2.641-4.776 2.641c-.251.14-.561.121-.795-.043-.235-.166-.354-.451-.308-.734l.92-5.644-3.893-3.99c-.196-.201-.264-.495-.175-.762s.32-.461.598-.503l5.35-.818 2.4-5.111c.124-.264.389-.432.679-.432.291 0 .555.168.679.432l2.399 5.111 5.35.818c.278.042.509.236.598.503s.021.561-.175.762l-3.893 3.99.92 5.644c.046.283-.074.568-.308.734-.128.091-.279.137-.431.137z" fill="#ffca28"/><path d="m9.065 5.878c-.291 0-.555.168-.679.432l-2.4 5.111-5.35.818c-.278.042-.509.236-.598.503s-.021.561.175.762l3.893 3.99-.92 5.644c-.046.283.073.568.308.734.129.09.281.137.433.137.124 0 .249-.031.362-.094l4.776-2.641z" fill="#deb023"/></svg>